<svg viewBox="0 0 1024 1024" xmlns="http://www.w3.org/2000/svg">
  <path d="M859.062857 530.285714h-292.571428v65.828572H768v91.428571h-201.142857v167.497143a348.16 348.16 0 0 0 282.331428-258.925714h93.622858A438.857143 438.857143 0 1 1 950.857143 512v18.285714z m-402.285714 0h-292.571429a347.794286 347.794286 0 0 0 292.571429 324.754286V687.542857H256v-91.428571h201.142857zM172.251429 438.857143h256l-146.285715-187.611429a346.331429 346.331429 0 0 0-109.714285 187.611429z m569.051428-187.977143l-146.285714 187.977143h256a348.891429 348.891429 0 0 0-109.714286-187.977143zM512 164.571429a343.771429 343.771429 0 0 0-153.6 36.571428l153.6 195.291429 153.6-196.388572A348.16 348.16 0 0 0 512 164.571429z" fill="#FB0000"/>
</svg>