<svg viewBox="0 0 1024 1024" xmlns="http://www.w3.org/2000/svg">
  <path d="M512 0C229.232 0 0 229.232 0 512c0 282.768 229.232 512 512 512 282.768 0 512-229.232 512-512C1024 229.232 794.768 0 512 0z" fill="#ADBFD9"/>
  <path d="M512 143.872L288 512l224 137.6V143.872zM288 548.576L512 880V688l-224-139.424z" fill="#FFFFFF"/>
  <path d="M288 512l224 137.6L736 512 512 143.872V374.4L288 512z m224 368l224-331.424L512 688v192z" fill="#FAFAFA" opacity=".92"/>
  <path d="M512 374.4v275.2L736 512l-224-137.6z" fill="#F5F5F5"/>
</svg>
